<svg width="21" height="24" viewBox="0 0 21 24" fill="none" xmlns="http://www.w3.org/2000/svg">
<g clip-path="url(#clip0_331_1035)">
<path d="M17.9109 1.8682C16.8035 0.606054 14.8018 0.0649414 12.2411 0.0649414H4.80903C4.55565 0.0649023 4.31057 0.155276 4.11788 0.319806C3.92519 0.484337 3.79754 0.712225 3.75787 0.962478L0.663304 20.589C0.601794 20.976 0.901476 21.3265 1.29374 21.3265H5.88203L7.03435 14.0175L6.99859 14.2464C7.08068 13.7298 7.52254 13.3487 8.04577 13.3487H10.2261C14.5094 13.3487 17.8633 11.6089 18.843 6.57617C18.8721 6.42733 18.8973 6.28245 18.919 6.14092C18.7954 6.07543 18.7954 6.07543 18.919 6.14092C19.2108 4.28076 18.9171 3.01456 17.9109 1.8682Z" fill="#27346A"/>
<path d="M8.79001 5.47082C8.91541 5.411 9.05263 5.38004 9.19157 5.38023H15.0182C15.7081 5.38023 16.3517 5.42513 16.9398 5.51978C17.1043 5.54603 17.268 5.57736 17.4306 5.61371C17.6611 5.66458 17.889 5.72683 18.1133 5.80023C18.4024 5.89678 18.6717 6.00923 18.9191 6.14092C19.2108 4.28004 18.9171 3.01456 17.9109 1.8682C16.8029 0.606054 14.8018 0.0649414 12.2411 0.0649414H4.80839C4.28508 0.0649414 3.83989 0.445922 3.75787 0.962478L0.663304 20.5883C0.601794 20.9759 0.901477 21.3259 1.29311 21.3259H5.88203L8.27274 6.16539C8.29626 6.01638 8.35563 5.87532 8.44573 5.75433C8.53584 5.63334 8.65398 5.53605 8.79001 5.47082Z" fill="#27346A"/>
<path d="M18.8434 6.57613C17.8637 11.6082 14.5099 13.3487 10.2266 13.3487H8.04559C7.52236 13.3487 7.08043 13.7297 6.99913 14.2464L5.56556 23.3342C5.512 23.6729 5.77394 23.9798 6.11661 23.9798H9.98443C10.206 23.9797 10.4203 23.9006 10.5887 23.7567C10.7571 23.6128 10.8687 23.4135 10.9033 23.1946L10.941 22.9975L11.67 18.3775L11.717 18.1221C11.7516 17.9033 11.8631 17.704 12.0316 17.5601C12.2 17.4161 12.4142 17.337 12.6358 17.3369H13.2147C16.9614 17.3369 19.8952 15.8148 20.7526 11.4124C21.1104 9.57271 20.9252 8.03671 19.9786 6.95782C19.6915 6.63104 19.3349 6.36116 18.9195 6.14087C18.897 6.28312 18.8726 6.42728 18.8434 6.57613Z" fill="#2790C3"/>
<path d="M17.894 5.7321C17.7412 5.6875 17.587 5.64801 17.4316 5.61369C17.2689 5.57792 17.1052 5.54681 16.9408 5.52039C16.352 5.42511 15.709 5.38013 15.0184 5.38013H9.19249C9.05346 5.3799 8.91619 5.41111 8.79093 5.47144C8.65473 5.53643 8.53643 5.63366 8.44628 5.75469C8.35613 5.87572 8.29685 6.0169 8.27358 6.16601L7.03527 14.0175L6.99951 14.2464C7.08097 13.7297 7.52282 13.3487 8.04613 13.3487H10.2271C14.5104 13.3487 17.8642 11.6089 18.8439 6.57616C18.8731 6.42731 18.8976 6.28307 18.92 6.1409C18.672 6.01004 18.4034 5.89668 18.1142 5.80084C18.0412 5.77665 17.9679 5.75373 17.8941 5.7321" fill="#1F264F"/>
</g>
<defs>
<clipPath id="clip0_331_1035">
<rect width="20.35" height="24" fill="white" transform="translate(0.649902)"/>
</clipPath>
</defs>
</svg>
